<svg width="71" height="61" viewBox="0 0 71 61" fill="none" xmlns="http://www.w3.org/2000/svg">
<path d="M24.9935 11.8843H30.8287C32.4566 11.8843 33.7338 11.4841 34.6354 10.7085C35.537 9.90783 35.9878 8.80692 35.9878 7.38081C35.9878 5.95469 35.537 4.87886 34.6354 4.10325C33.7338 3.32764 32.4566 2.92725 30.8287 2.92725H24.9935V11.8843ZM21.4873 0.025044H30.8287C33.5334 0.025044 35.6623 0.675474 37.19 1.97649C38.7427 3.27751 39.494 5.05394 39.494 7.33072C39.494 9.6075 38.7177 11.484 37.19 12.81C35.6372 14.1361 33.5334 14.7865 30.8287 14.7865H24.9935V25.6701H21.4873V0V0.025044Z" fill="#E89BC1"/>
<path d="M54.345 16.9882H51.3146C49.4363 16.9882 48.0339 17.2886 47.1072 17.889C46.1806 18.4895 45.7048 19.4151 45.7048 20.6161C45.7048 21.5918 46.0304 22.3675 46.6815 22.8929C47.3327 23.4184 48.2593 23.6934 49.4614 23.6934C51.0642 23.6934 52.2914 23.2431 53.0928 22.3174C53.8942 21.4167 54.2949 20.0657 54.3199 18.2893V16.9383L54.345 16.9882ZM48.9355 26.1954C46.8819 26.1954 45.279 25.6951 44.127 24.7193C42.9749 23.7436 42.3989 22.3674 42.3989 20.6161C42.3989 18.7146 43.2004 17.2385 44.7781 16.1627C46.3559 15.0868 48.5598 14.5614 51.3397 14.5614H54.3199V13.0601C54.3199 11.9092 53.9943 11.0836 53.3432 10.5582C52.692 10.0327 51.6403 9.78256 50.1877 9.78256C49.186 9.78256 48.3845 10.0329 47.7835 10.5082C47.1824 10.9836 46.8317 11.6591 46.7566 12.5098H43.3006C43.4258 10.7083 44.0769 9.40731 45.2289 8.58167C46.3809 7.75602 48.1341 7.33069 50.4632 7.33069C52.617 7.33069 54.345 7.85611 55.6473 8.90693C56.9747 9.95776 57.6258 11.3588 57.6258 13.0601V19.2901C57.6258 20.9915 57.6758 22.4174 57.7509 23.5433C57.8261 24.6942 57.9514 25.3949 58.1267 25.6951H54.9962C54.8709 25.545 54.7708 25.1446 54.6956 24.4941C54.6456 24.0687 54.5955 23.5684 54.5705 22.9679C54.3451 23.3682 54.0945 23.7185 53.819 24.0688C52.6419 25.4949 51.0141 26.1954 48.9605 26.1954" fill="#E89BC1"/>
<path d="M48.561 37.5043H39.9458V36.0532V34.5771H60.6824V36.0532V37.5043H52.0672V60.2472H50.3141H48.561V37.5043Z" fill="#E89BC1"/>
<path d="M67.4692 34.5771H69.2224H71.0005V60.2472H69.2474H67.4692V34.5771Z" fill="#E89BC1"/>
<path d="M9.79231 47.6123H14.9012V53.9672H9.79231V47.6123ZM0 41.3574V47.6123H3.78168V53.9672H0V60.2221H24.5682V53.9672H21.0621V47.6123H24.5682V41.3574H0Z" fill="#E89BC1"/>
</svg>
